<svg width="16" height="16" viewBox="0 0 16 16" fill="none" xmlns="http://www.w3.org/2000/svg">
<path d="M0.787109 8C1.41378 4.58667 4.40511 2 7.99978 2C11.5944 2 14.5851 4.58667 15.2124 8C14.5858 11.4133 11.5944 14 7.99978 14C4.40511 14 1.41444 11.4133 0.787109 8ZM7.99978 11.3333C8.88383 11.3333 9.73168 10.9821 10.3568 10.357C10.9819 9.7319 11.3331 8.88406 11.3331 8C11.3331 7.11595 10.9819 6.2681 10.3568 5.64298C9.73168 5.01786 8.88383 4.66667 7.99978 4.66667C7.11572 4.66667 6.26787 5.01786 5.64275 5.64298C5.01763 6.2681 4.66644 7.11595 4.66644 8C4.66644 8.88406 5.01763 9.7319 5.64275 10.357C6.26787 10.9821 7.11572 11.3333 7.99978 11.3333ZM7.99978 10C7.46934 10 6.96063 9.78929 6.58556 9.41421C6.21049 9.03914 5.99978 8.53043 5.99978 8C5.99978 7.46957 6.21049 6.96086 6.58556 6.58579C6.96063 6.21071 7.46934 6 7.99978 6C8.53021 6 9.03892 6.21071 9.41399 6.58579C9.78906 6.96086 9.99978 7.46957 9.99978 8C9.99978 8.53043 9.78906 9.03914 9.41399 9.41421C9.03892 9.78929 8.53021 10 7.99978 10Z" fill="#2A6FFF"/>
</svg>
