<svg width="16" height="16" viewBox="0 0 16 16" fill="none" xmlns="http://www.w3.org/2000/svg">
<path d="M12.2428 10.3573L11.3002 9.41333L12.2428 8.47066C12.5546 8.16162 12.8022 7.79406 12.9716 7.38906C13.1409 6.98406 13.2285 6.5496 13.2295 6.11064C13.2304 5.67167 13.1447 5.23683 12.9772 4.8311C12.8096 4.42536 12.5636 4.05671 12.2532 3.74631C11.9428 3.43592 11.5741 3.18988 11.1684 3.02234C10.7627 2.8548 10.3278 2.76905 9.88886 2.77001C9.44989 2.77097 9.01544 2.85863 8.61044 3.02794C8.20544 3.19726 7.83787 3.44491 7.52884 3.75666L6.58617 4.69999L5.64284 3.75733L6.58684 2.81466C7.46205 1.93944 8.6491 1.44775 9.88684 1.44775C11.1246 1.44775 12.3116 1.93944 13.1868 2.81466C14.0621 3.68987 14.5537 4.87692 14.5537 6.11466C14.5537 7.3524 14.0621 8.53944 13.1868 9.41466L12.2435 10.3573H12.2428ZM10.3575 12.2427L9.41417 13.1853C8.53896 14.0605 7.35191 14.5522 6.11417 14.5522C4.87643 14.5522 3.68938 14.0605 2.81417 13.1853C1.93896 12.3101 1.44727 11.1231 1.44727 9.88533C1.44727 8.64759 1.93896 7.46054 2.81417 6.58533L3.7575 5.64266L4.70017 6.58666L3.7575 7.52933C3.44575 7.83836 3.19811 8.20593 3.02879 8.61093C2.85947 9.01593 2.77182 9.45038 2.77086 9.88935C2.76989 10.3283 2.85565 10.7632 3.02319 11.1689C3.19073 11.5746 3.43676 11.9433 3.74716 12.2537C4.05756 12.5641 4.42621 12.8101 4.83194 12.9776C5.23768 13.1452 5.67251 13.2309 6.11148 13.23C6.55045 13.229 6.9849 13.1414 7.3899 12.972C7.7949 12.8027 8.16247 12.5551 8.4715 12.2433L9.41417 11.3007L10.3575 12.2433V12.2427ZM9.8855 5.17133L10.8288 6.11466L6.11484 10.828L5.1715 9.88533L9.8855 5.17199V5.17133Z" fill="#2A6FFF"/>
</svg>
