<svg width="16" height="16" viewBox="0 0 16 16" fill="none" xmlns="http://www.w3.org/2000/svg">
<path d="M4.61923 10.4481H11.3808L8 5.48663L4.61923 10.4481ZM8.32991 3.17274L13.9336 11.3971C13.9733 11.4555 13.9961 11.5234 13.9995 11.5935C14.003 11.6636 13.9869 11.7333 13.9531 11.7951C13.9192 11.857 13.8688 11.9087 13.8073 11.9448C13.7458 11.9809 13.6754 12 13.6037 12H2.39632C2.32459 12 2.25422 11.9809 2.1927 11.9448C2.13118 11.9087 2.0808 11.857 2.04695 11.7951C2.0131 11.7333 1.99703 11.6636 2.00045 11.5935C2.00388 11.5234 2.02668 11.4555 2.06641 11.3971L7.67009 3.17274C7.7063 3.1196 7.75536 3.07603 7.81291 3.0459C7.87046 3.01577 7.93473 3 8 3C8.06527 3 8.12954 3.01577 8.18709 3.0459C8.24464 3.07603 8.2937 3.1196 8.32991 3.17274Z" fill="#2A6FFF"/>
</svg>
