<svg width="12" height="16" viewBox="0 0 12 16" fill="none" xmlns="http://www.w3.org/2000/svg">
<path d="M11.376 8.41631L0.777 15.4823C0.701706 15.5324 0.61423 15.5612 0.523891 15.5655C0.433553 15.5698 0.343733 15.5495 0.263999 15.5069C0.184265 15.4642 0.117604 15.4006 0.0711136 15.3231C0.0246236 15.2455 4.67204e-05 15.1568 0 15.0663V0.934312C4.67204e-05 0.84387 0.0246236 0.755134 0.0711136 0.677556C0.117604 0.599977 0.184265 0.53646 0.263999 0.493772C0.343733 0.451083 0.433553 0.43082 0.523891 0.435142C0.61423 0.439463 0.701706 0.468207 0.777 0.518312L11.376 7.58431C11.4445 7.62997 11.5006 7.69183 11.5395 7.7644C11.5783 7.83697 11.5986 7.91801 11.5986 8.00031C11.5986 8.08262 11.5783 8.16365 11.5395 8.23622C11.5006 8.30879 11.4445 8.37065 11.376 8.41631Z" fill="#2A6FFF"/>
</svg>
