<svg width="12" height="15" viewBox="0 0 12 15" fill="none" xmlns="http://www.w3.org/2000/svg">
<path d="M1.33317 0.333496H10.6665C10.8433 0.333496 11.0129 0.403734 11.1379 0.528758C11.2629 0.653782 11.3332 0.823352 11.3332 1.00016V13.7622C11.3332 13.8218 11.3173 13.8803 11.2871 13.9317C11.2569 13.983 11.2134 14.0254 11.1613 14.0542C11.1091 14.0831 11.0502 14.0974 10.9906 14.0958C10.931 14.0941 10.873 14.0765 10.8225 14.0448L5.99984 11.0202L1.17717 14.0442C1.12675 14.0758 1.06876 14.0934 1.00924 14.0951C0.949715 14.0968 0.890828 14.0825 0.838701 14.0537C0.786573 14.0249 0.743108 13.9827 0.712826 13.9314C0.682543 13.8802 0.666548 13.8217 0.666504 13.7622V1.00016C0.666504 0.823352 0.736742 0.653782 0.861766 0.528758C0.98679 0.403734 1.15636 0.333496 1.33317 0.333496ZM9.99984 1.66683H1.99984V11.9548L5.99984 9.4475L9.99984 11.9548V1.66683Z" fill="#2A6FFF"/>
</svg>
