<svg width="16" height="16" viewBox="0 0 16 16" fill="none" xmlns="http://www.w3.org/2000/svg">
<path d="M4.66683 3.33268V1.33268C4.66683 1.15587 4.73707 0.986302 4.86209 0.861278C4.98712 0.736253 5.15669 0.666016 5.3335 0.666016H10.6668C10.8436 0.666016 11.0132 0.736253 11.1382 0.861278C11.2633 0.986302 11.3335 1.15587 11.3335 1.33268V3.33268H14.0002C14.177 3.33268 14.3465 3.40292 14.4716 3.52794C14.5966 3.65297 14.6668 3.82254 14.6668 3.99935V13.3327C14.6668 13.5095 14.5966 13.6791 14.4716 13.8041C14.3465 13.9291 14.177 13.9993 14.0002 13.9993H2.00016C1.82335 13.9993 1.65378 13.9291 1.52876 13.8041C1.40373 13.6791 1.3335 13.5095 1.3335 13.3327V3.99935C1.3335 3.82254 1.40373 3.65297 1.52876 3.52794C1.65378 3.40292 1.82335 3.33268 2.00016 3.33268H4.66683ZM2.66683 10.666V12.666H13.3335V10.666H2.66683ZM2.66683 9.33268H13.3335V4.66602H2.66683V9.33268ZM6.00016 1.99935V3.33268H10.0002V1.99935H6.00016ZM7.3335 7.33268H8.66683V8.66602H7.3335V7.33268Z" fill="#2A6FFF"/>
</svg>
