<svg width="121" height="16" viewBox="0 0 121 16" fill="none" xmlns="http://www.w3.org/2000/svg">
<path d="M0 0.453608C0 0.329898 0.0412836 0.206186 0.123855 0.123712C0.206426 0.0412382 0.330283 0 0.495425 0H11.8902C12.0141 0 12.1379 0.0412382 12.2205 0.123712C12.3031 0.206186 12.3856 0.329898 12.3856 0.453608V3.09277C12.3856 3.21648 12.3444 3.34019 12.2618 3.4639C12.1792 3.58761 12.0554 3.62885 11.8902 3.62885H8.2571V15.2164C8.2571 15.3401 8.21581 15.4638 8.13324 15.5463C8.05067 15.6288 7.92681 15.7113 7.76167 15.7113H4.66526C4.5414 15.7113 4.41755 15.67 4.33498 15.5876C4.21112 15.5051 4.16983 15.3814 4.16983 15.2164V3.62885H0.536709C0.412853 3.62885 0.288996 3.58761 0.165139 3.50514C0.0825684 3.42266 0.0412849 3.29895 0.0412849 3.09277V0.453608H0Z" fill="#020C40"/>
<path d="M23.2439 14.0619C22.6246 14.6392 21.9227 15.0928 21.1383 15.3815C20.3539 15.6702 19.5282 15.8763 18.6612 15.8763C17.7116 15.8763 16.762 15.7114 15.9363 15.3403C15.0693 14.9691 14.3262 14.5155 13.6656 13.8557C13.005 13.1959 12.5096 12.4949 12.1381 11.6702C11.7665 10.8042 11.5601 9.89699 11.5601 8.9073C11.5601 8.28875 11.6426 7.67019 11.8078 7.09287C11.9729 6.51555 12.1793 5.97947 12.4683 5.44339C12.7573 4.94855 13.0876 4.45371 13.5005 4.04134C13.9133 3.62897 14.3262 3.25784 14.8216 2.92794C15.317 2.63928 15.8538 2.39186 16.4317 2.22692C17.0097 2.06197 17.629 1.97949 18.2483 1.97949C18.8263 1.97949 19.4043 2.06197 19.941 2.22692C20.4777 2.39186 21.0144 2.59805 21.5099 2.8867C22.0053 3.17536 22.4181 3.50526 22.831 3.91763C23.2439 4.33 23.5741 4.74237 23.8631 5.19598C24.1521 5.64958 24.3586 6.18566 24.5237 6.6805C24.6888 7.21658 24.7714 7.75266 24.7714 8.32998C24.7714 8.70111 24.7714 8.98978 24.7714 9.2372C24.7714 9.48462 24.6888 9.64956 24.6063 9.77327C24.5237 9.89698 24.3586 10.0207 24.1108 10.0619C23.8631 10.1032 23.5329 10.1444 23.12 10.1444H15.4822C15.5648 10.598 15.6886 10.9691 15.895 11.2578C16.1015 11.5465 16.3492 11.7939 16.6382 12.0001C16.9272 12.165 17.2162 12.2887 17.5465 12.3712C17.8767 12.4537 18.1657 12.4949 18.4547 12.4949C18.7024 12.4949 18.9502 12.4537 19.2392 12.4124C19.4869 12.3712 19.7759 12.2887 20.0236 12.2063C20.2713 12.1238 20.519 12.0001 20.7254 11.9176C20.9319 11.7939 21.097 11.6702 21.2209 11.5465C21.3447 11.464 21.4273 11.3815 21.5099 11.3403C21.5924 11.299 21.675 11.2578 21.7576 11.2578C21.8401 11.2578 21.9227 11.299 22.0466 11.3403C22.1291 11.4228 22.253 11.5052 22.3769 11.6289L23.4916 12.9073C23.5741 12.9898 23.6154 13.0722 23.6567 13.1547C23.698 13.2372 23.698 13.3197 23.698 13.4021C23.698 13.5258 23.6567 13.6496 23.5741 13.7733C23.409 13.897 23.3264 13.9794 23.2439 14.0619ZM18.1244 5.23721C17.8355 5.23721 17.5877 5.27845 17.34 5.40216C17.0923 5.52587 16.8446 5.64958 16.5969 5.85576C16.3905 6.02071 16.184 6.2269 15.9776 6.47432C15.8125 6.72174 15.6473 6.92793 15.5235 7.17535H20.9319C20.7667 6.88669 20.6429 6.63927 20.4364 6.43308C20.2713 6.18566 20.0649 5.97948 19.8584 5.81453C19.652 5.64958 19.363 5.48463 19.1153 5.40216C18.8263 5.31969 18.496 5.23721 18.1244 5.23721Z" fill="#020C40"/>
<path d="M39.8819 14.8867C39.8819 15.0104 39.8407 15.1341 39.7994 15.2166C39.7581 15.3403 39.6755 15.4228 39.5929 15.464C39.5104 15.5465 39.4278 15.5877 39.3039 15.629C39.1801 15.6702 39.0975 15.6702 39.0149 15.6702H36.9094C36.7442 15.6702 36.6204 15.6702 36.5378 15.629C36.4552 15.5877 36.3727 15.5465 36.3314 15.464C36.2901 15.3815 36.2075 15.2991 36.2075 15.2166C36.1662 15.1341 36.125 15.0104 36.0837 14.8867L35.9598 14.3919C35.7534 14.598 35.547 14.763 35.2993 14.9692C35.0515 15.1341 34.8038 15.2991 34.5148 15.464C34.2258 15.629 33.8955 15.7114 33.5653 15.7939C33.235 15.8764 32.8634 15.9176 32.5331 15.9176C31.8726 15.9176 31.2946 15.8351 30.6753 15.6702C30.0973 15.5053 29.5193 15.2578 29.0239 14.9692C28.5284 14.6805 28.033 14.3094 27.6202 13.897C27.2073 13.4846 26.8357 13.031 26.5467 12.495C26.2577 12.0001 26.01 11.4228 25.8449 10.8455C25.6797 10.2682 25.5972 9.60837 25.5972 8.98981C25.5972 8.00013 25.7623 7.09291 26.1339 6.26818C26.5054 5.44344 27.0009 4.70118 27.6202 4.08262C28.2394 3.46407 28.9826 2.96922 29.8083 2.59809C30.634 2.22696 31.5423 2.06201 32.4918 2.06201C32.946 2.06201 33.3175 2.10325 33.7304 2.22696C34.102 2.30944 34.4735 2.47438 34.7625 2.63933C35.0928 2.80428 35.3405 3.01046 35.6295 3.25789C35.8773 3.50531 36.125 3.75273 36.2901 4.04138L36.5791 3.09293C36.6617 2.92799 36.703 2.76304 36.7442 2.68057C36.7855 2.55685 36.8268 2.47438 36.9094 2.43315C36.9507 2.39191 37.0332 2.35067 37.1158 2.30944C37.1984 2.2682 37.3222 2.2682 37.4461 2.2682H39.0149C39.0975 2.2682 39.1801 2.2682 39.3039 2.30944C39.4278 2.35067 39.5104 2.39191 39.5929 2.47438C39.6755 2.55685 39.7581 2.63933 39.7994 2.7218C39.8407 2.80428 39.8819 2.92799 39.8819 3.0517V14.8867ZM29.4367 8.94857C29.4367 9.40218 29.5193 9.85579 29.6431 10.2682C29.767 10.6805 29.9734 11.0104 30.2624 11.3403C30.5101 11.629 30.8404 11.8764 31.212 12.0413C31.5836 12.2063 31.9964 12.2888 32.4506 12.2888C32.9047 12.2888 33.3588 12.2063 33.7717 12.0413C34.1845 11.8764 34.5148 11.629 34.8451 11.3403C35.1341 11.0517 35.3818 10.6805 35.547 10.2682C35.7121 9.85579 35.7947 9.44342 35.7947 8.94857C35.7947 8.49497 35.7121 8.0826 35.547 7.67023C35.3818 7.25786 35.1341 6.88673 34.8451 6.59807C34.5561 6.26818 34.1845 6.06199 33.7717 5.85581C33.3588 5.69086 32.946 5.56715 32.4506 5.56715C31.9964 5.56715 31.5836 5.64962 31.212 5.85581C30.8404 6.02075 30.5101 6.26818 30.2624 6.59807C29.9734 6.92797 29.767 7.25786 29.6431 7.67023C29.5193 8.0826 29.4367 8.53621 29.4367 8.94857Z" fill="#020C40"/>
<path d="M42.4001 2.4331C42.4827 2.35063 42.6065 2.30939 42.6891 2.26815C42.7717 2.22691 42.8955 2.22692 42.9781 2.22692H44.5882C44.7121 2.22692 44.836 2.26815 44.9185 2.30939C45.0011 2.35063 45.0837 2.4331 45.1662 2.47433C45.2488 2.51557 45.2901 2.63928 45.3314 2.72176C45.3727 2.80423 45.4139 2.92794 45.4552 3.01042L45.6617 3.95887C45.7855 3.75268 45.9094 3.50526 46.1158 3.29907C46.3222 3.05165 46.5699 2.84547 46.8589 2.68052C47.1479 2.47433 47.5195 2.35063 47.9324 2.22692C48.3452 2.10321 48.8406 2.06196 49.4186 2.06196C49.8728 2.06196 50.2856 2.1032 50.6159 2.18568C50.9875 2.26815 51.3178 2.39186 51.6068 2.55681C51.8958 2.72175 52.1848 2.92794 52.4325 3.17536C52.6802 3.42278 52.9279 3.71144 53.1343 4.04134C53.2582 3.83515 53.4646 3.58773 53.7123 3.34031C53.96 3.09289 54.2903 2.8867 54.6619 2.68052C55.0335 2.47433 55.4463 2.30939 55.9005 2.18568C56.3546 2.06197 56.85 1.97949 57.3455 1.97949C58.1299 1.97949 58.8317 2.14444 59.451 2.4331C60.0703 2.72176 60.5657 3.17536 60.9373 3.71144C61.3501 4.24752 61.6392 4.86608 61.8456 5.5671C62.052 6.26813 62.1346 7.05163 62.1346 7.83514V14.7629C62.1346 15.0516 62.0933 15.2165 61.9694 15.3815C61.8456 15.5052 61.6804 15.5877 61.4327 15.5877H58.9969C58.7079 15.5877 58.5014 15.5464 58.3776 15.4227C58.2537 15.3403 58.2125 15.1341 58.2125 14.8454V7.87638C58.2125 7.58772 58.1712 7.29906 58.0886 7.0104C58.006 6.76298 57.8409 6.51556 57.6757 6.30937C57.5106 6.10319 57.3042 5.97947 57.0565 5.85576C56.8087 5.73205 56.561 5.69082 56.2307 5.69082C55.983 5.69082 55.694 5.73205 55.4876 5.85576C55.2399 5.97947 55.0335 6.10319 54.8683 6.30937C54.7032 6.51556 54.538 6.72174 54.4142 6.96916C54.2903 7.21659 54.249 7.50524 54.249 7.83514V14.7629C54.249 15.0516 54.2078 15.2165 54.0839 15.3815C53.96 15.5052 53.7949 15.5877 53.5472 15.5877H53.3408H53.1343H50.9875C50.6985 15.5877 50.4921 15.5464 50.3682 15.4227C50.2444 15.3403 50.2031 15.1341 50.2031 14.8454V7.87638C50.2031 7.58772 50.1618 7.29906 50.0792 7.0104C49.9966 6.72174 49.8728 6.51556 49.7076 6.30937C49.5425 6.10319 49.3361 5.97947 49.0884 5.85576C48.8406 5.73205 48.5929 5.69082 48.3039 5.69082C48.0562 5.69082 47.8085 5.73205 47.5608 5.85576C47.3131 5.93824 47.1067 6.10319 46.9002 6.30937C46.6938 6.51556 46.5287 6.72174 46.4048 6.96916C46.2809 7.21659 46.1984 7.50524 46.1571 7.83514V14.8042C46.1571 14.9279 46.1158 15.0516 46.0745 15.1753C46.0332 15.299 45.9507 15.3815 45.8681 15.464C45.7855 15.5052 45.703 15.5464 45.6204 15.5877C45.5378 15.6289 45.4552 15.6289 45.3314 15.6289H42.9368C42.6478 15.6289 42.4001 15.5464 42.2763 15.4227C42.1524 15.2578 42.0698 15.0928 42.0698 14.8454V3.01042C42.0698 2.8867 42.1111 2.763 42.1524 2.63929C42.1937 2.51557 42.2763 2.4331 42.4001 2.39186V2.4331Z" fill="#020C40"/>
<path d="M64.0336 2.4331C64.1161 2.35063 64.24 2.30939 64.3226 2.26815C64.4052 2.22691 64.529 2.22692 64.6116 2.22692H66.2217C66.3456 2.22692 66.4694 2.26815 66.552 2.30939C66.6346 2.35063 66.7171 2.4331 66.7997 2.47433C66.8823 2.55681 66.9236 2.63928 66.9648 2.72176C67.0061 2.80423 67.0474 2.92794 67.0887 3.01042L67.2951 3.95887C67.419 3.75268 67.5428 3.50526 67.7493 3.29907C67.9557 3.05165 68.2034 2.84547 68.4924 2.68052C68.7814 2.47433 69.153 2.35063 69.5658 2.22692C69.9787 2.10321 70.4741 2.06196 71.0521 2.06196C71.5062 2.06196 71.9191 2.1032 72.2494 2.18568C72.621 2.26815 72.9512 2.39186 73.2402 2.55681C73.5292 2.72175 73.8182 2.92794 74.066 3.17536C74.3137 3.42278 74.5614 3.71144 74.7678 4.04134C74.8917 3.83515 75.0981 3.58773 75.3458 3.34031C75.5935 3.09289 75.9238 2.8867 76.2954 2.68052C76.6669 2.47433 77.0798 2.30939 77.5339 2.18568C77.9881 2.06197 78.4835 1.97949 78.9789 1.97949C79.7633 1.97949 80.4652 2.14444 81.0845 2.4331C81.7038 2.72176 82.1992 3.17536 82.5708 3.71144C82.9423 4.24752 83.2726 4.86608 83.479 5.5671C83.6855 6.26813 83.768 7.05163 83.768 7.83514V14.7629C83.768 15.0516 83.7267 15.2165 83.6029 15.3815C83.479 15.5464 83.3139 15.5877 83.0662 15.5877H80.6303C80.3413 15.5877 80.1349 15.5464 80.0111 15.4227C79.8872 15.3403 79.8459 15.1341 79.8459 14.8454V7.87638C79.8459 7.58772 79.8046 7.29906 79.7221 7.0104C79.6395 6.76298 79.4743 6.51556 79.3092 6.30937C79.1441 6.10319 78.9376 5.97947 78.6899 5.85576C78.4422 5.73205 78.1945 5.69082 77.8642 5.69082C77.6165 5.69082 77.3275 5.73205 77.1211 5.85576C76.8734 5.97947 76.6669 6.10319 76.5018 6.30937C76.3367 6.51556 76.1715 6.72174 76.0477 6.96916C75.9238 7.21659 75.8825 7.50524 75.8825 7.83514V14.7629C75.8825 15.0516 75.8412 15.2165 75.7174 15.3815C75.5935 15.5464 75.4284 15.5877 75.1807 15.5877H74.9742H74.8917H72.7448C72.4558 15.5877 72.2494 15.5464 72.1255 15.4227C72.0017 15.3403 71.9604 15.1341 71.9604 14.8454V7.87638C71.9604 7.58772 71.9191 7.29906 71.8365 7.0104C71.754 6.76298 71.6301 6.51556 71.465 6.30937C71.2998 6.10319 71.0934 5.97947 70.8457 5.85576C70.598 5.73205 70.3503 5.69082 70.0613 5.69082C69.8135 5.69082 69.5658 5.73205 69.3181 5.85576C69.0704 5.93824 68.864 6.10319 68.6576 6.30937C68.4511 6.51556 68.286 6.72174 68.1621 6.96916C68.0383 7.21659 67.9557 7.50524 67.9144 7.83514V14.8042C67.9144 14.9279 67.8731 15.0516 67.8318 15.1753C67.7906 15.299 67.708 15.3815 67.6254 15.464C67.5428 15.5052 67.4603 15.5464 67.3777 15.5877C67.2951 15.6289 67.2126 15.6289 67.0887 15.6289H64.6941C64.4051 15.6289 64.1574 15.5464 64.0336 15.4227C63.9097 15.2578 63.8271 15.0928 63.8271 14.8454V3.01042C63.8271 2.8867 63.8684 2.763 63.9097 2.63929C63.951 2.51557 64.0336 2.4331 64.1574 2.39186L64.0336 2.4331Z" fill="#020C40"/>
<path d="M96.6906 14.0619C96.0713 14.6392 95.3695 15.0928 94.5851 15.3815C93.8006 15.6702 92.9749 15.8763 92.1079 15.8763C91.1584 15.8763 90.2088 15.7114 89.3831 15.3403C88.5161 14.9691 87.773 14.5155 87.1124 13.8557C86.4518 13.2372 85.9564 12.4949 85.5848 11.6702C85.2133 10.8042 85.0068 9.89699 85.0068 8.9073C85.0068 8.28875 85.0894 7.67019 85.2545 7.09287C85.4197 6.51555 85.6261 5.97947 85.9151 5.44339C86.2041 4.94855 86.5344 4.45371 86.9472 4.04134C87.3601 3.62897 87.773 3.25784 88.2684 2.92794C88.7638 2.63928 89.3005 2.39186 89.8785 2.22692C90.4565 2.06197 91.0758 1.97949 91.6951 1.97949C92.2731 1.97949 92.8511 2.06197 93.3878 2.22692C93.9245 2.39186 94.4612 2.59805 94.9566 2.8867C95.4521 3.17536 95.8649 3.50526 96.2778 3.91763C96.6906 4.33 97.0209 4.74237 97.3099 5.19598C97.5989 5.64958 97.8053 6.18566 97.9705 6.6805C98.1356 7.21658 98.2182 7.75266 98.2182 8.32998C98.2182 8.70111 98.2182 8.98978 98.2182 9.2372C98.2182 9.48462 98.1356 9.64956 98.053 9.77327C97.9705 9.89698 97.8053 10.0207 97.5576 10.0619C97.3099 10.1032 96.9796 10.1444 96.5668 10.1444H88.929C89.0115 10.598 89.1354 10.9691 89.3418 11.2578C89.5482 11.5465 89.7959 11.7939 90.0849 12.0001C90.3739 12.165 90.6629 12.2887 90.9932 12.3712C91.3235 12.4537 91.6125 12.4949 91.9015 12.4949C92.1492 12.4949 92.3969 12.4537 92.6859 12.4124C92.9336 12.3712 93.2226 12.2887 93.4704 12.2063C93.7181 12.1238 93.9658 12.0001 94.1722 11.9176C94.3786 11.7939 94.5438 11.6702 94.6676 11.5465C94.7915 11.464 94.8741 11.3815 94.9566 11.3403C95.0392 11.299 95.1218 11.2578 95.2043 11.2578C95.2869 11.2578 95.3695 11.299 95.4933 11.3403C95.5759 11.4228 95.6998 11.5052 95.8236 11.6289L96.9383 12.9073C97.0209 12.9898 97.0622 13.0722 97.1035 13.1547C97.1448 13.2372 97.1448 13.3197 97.1448 13.4021C97.1448 13.5258 97.1035 13.6496 97.0209 13.7733C96.897 13.897 96.7732 13.9794 96.6906 14.0619ZM91.5712 5.23721C91.2822 5.23721 91.0345 5.27845 90.7868 5.40216C90.5391 5.52587 90.2914 5.64958 90.0437 5.85576C89.8372 6.02071 89.6308 6.2269 89.4244 6.47432C89.2592 6.72174 89.0941 6.92793 88.9702 7.17535H94.4199C94.2548 6.88669 94.1309 6.63927 93.9245 6.43308C93.7593 6.18566 93.5529 5.97948 93.3465 5.81453C93.1401 5.64958 92.8511 5.48463 92.6034 5.40216C92.3144 5.31969 91.9841 5.23721 91.5712 5.23721Z" fill="#020C40"/>
<path d="M99.498 3.01046C99.498 2.88675 99.5393 2.76304 99.5806 2.68057C99.6219 2.59809 99.7045 2.51562 99.7871 2.43315C99.8696 2.35067 99.9522 2.30944 100.076 2.30944C100.159 2.2682 100.282 2.2682 100.365 2.2682H101.975C102.14 2.2682 102.305 2.30944 102.388 2.43315C102.512 2.55686 102.594 2.68057 102.677 2.84552C102.76 3.01046 102.801 3.17541 102.883 3.38159C102.925 3.58778 103.007 3.75273 103.09 3.95891C103.296 3.71149 103.503 3.50531 103.709 3.25789C103.916 3.0517 104.122 2.84552 104.37 2.63933C104.617 2.47438 104.865 2.30944 105.154 2.22696C105.443 2.10325 105.773 2.06201 106.145 2.06201C106.517 2.06201 106.847 2.10325 107.177 2.14448C107.466 2.18572 107.755 2.2682 108.044 2.39191C108.292 2.51562 108.581 2.63933 108.829 2.80428C109.076 2.96922 109.365 3.17541 109.696 3.38159C109.985 3.54654 110.15 3.75272 110.15 4.00015C110.15 4.16509 110.108 4.33004 109.985 4.53623L109.035 6.1857C108.829 6.47436 108.622 6.59807 108.333 6.59807C108.209 6.59807 108.044 6.55683 107.838 6.47436C107.549 6.1857 107.218 5.93828 106.929 5.81457C106.599 5.69086 106.269 5.60839 105.856 5.60839C105.567 5.60839 105.319 5.64963 105.113 5.7321C104.906 5.81457 104.7 5.93828 104.535 6.06199C104.37 6.1857 104.205 6.39189 104.039 6.55684C103.874 6.76302 103.75 6.9692 103.585 7.21663V14.8867C103.585 15.1753 103.503 15.3403 103.379 15.5052C103.255 15.6702 103.049 15.7114 102.718 15.7114H100.324C99.787 15.7114 99.498 15.4228 99.498 14.8867V3.01046Z" fill="#020C40"/>
<path d="M113.122 11.505C113.329 11.7112 113.535 11.8761 113.741 11.9998C113.948 12.1235 114.196 12.2473 114.402 12.3297C114.608 12.4122 114.774 12.4534 114.939 12.4947C115.104 12.5359 115.186 12.5359 115.269 12.5359C115.393 12.5359 115.558 12.5359 115.764 12.5359C115.971 12.5359 116.177 12.4947 116.342 12.4534C116.549 12.4122 116.714 12.3297 116.838 12.206C116.962 12.0823 117.044 11.9174 117.044 11.7112C117.044 11.505 117.003 11.34 116.92 11.2576C116.838 11.1339 116.714 11.0514 116.59 10.9689C116.425 10.8864 116.26 10.804 116.053 10.7627C115.847 10.6803 115.599 10.639 115.31 10.5565C114.443 10.3504 113.783 10.0617 113.205 9.73181C112.668 9.40191 112.214 9.07202 111.884 8.65965C111.553 8.28851 111.347 7.83491 111.223 7.38131C111.099 6.9277 111.017 6.47409 111.017 5.93801C111.017 5.3607 111.14 4.82461 111.347 4.32977C111.595 3.83493 111.925 3.42256 112.338 3.09266C112.751 2.76277 113.287 2.47411 113.865 2.30916C114.485 2.10298 115.145 2.02051 115.847 2.02051C116.301 2.02051 116.714 2.06174 117.085 2.14421C117.457 2.22669 117.829 2.3504 118.2 2.47411C118.572 2.63906 118.902 2.84524 119.232 3.09266C119.563 3.34009 119.893 3.62874 120.223 3.99987C120.347 4.12358 120.388 4.28853 120.388 4.41224C120.388 4.53595 120.306 4.65966 120.141 4.82461C119.852 5.0308 119.604 5.27822 119.356 5.48441C119.108 5.69059 118.861 5.93801 118.572 6.22667C118.489 6.30914 118.407 6.35038 118.324 6.35038C118.241 6.35038 118.159 6.35038 118.076 6.35038C117.994 6.30915 117.911 6.30914 117.87 6.22667C117.787 6.18543 117.746 6.10296 117.663 6.06172C117.416 5.77306 117.127 5.60812 116.797 5.52565C116.466 5.44317 116.177 5.40193 115.888 5.40193C115.558 5.40193 115.269 5.44317 115.063 5.56688C114.856 5.69059 114.774 5.85554 114.774 6.10296C114.774 6.26791 114.856 6.43285 114.98 6.51533C115.104 6.5978 115.269 6.68028 115.434 6.76275C115.599 6.84523 115.806 6.88646 116.012 6.9277C116.218 6.96893 116.384 7.01017 116.549 7.05141C117.168 7.25759 117.746 7.46377 118.283 7.7112C118.819 7.95862 119.274 8.24728 119.645 8.57717C120.017 8.90707 120.347 9.36067 120.553 9.81428C120.76 10.3091 120.884 10.8864 120.884 11.5875C120.884 12.2885 120.76 12.907 120.471 13.4431C120.182 13.9792 119.81 14.4741 119.315 14.8452C118.819 15.2163 118.241 15.505 117.581 15.7112C116.92 15.9173 116.177 15.9998 115.434 15.9998C114.98 15.9998 114.567 15.9586 114.113 15.8761C113.659 15.7936 113.205 15.6699 112.792 15.505C112.379 15.34 111.966 15.0926 111.595 14.8452C111.223 14.5565 110.893 14.2266 110.562 13.8555C110.48 13.773 110.439 13.6493 110.397 13.5256C110.356 13.4019 110.356 13.3194 110.356 13.1957C110.356 13.072 110.397 12.9895 110.439 12.907C110.48 12.8246 110.521 12.7421 110.604 12.6596L111.966 11.2988C112.131 11.1751 112.296 11.0926 112.42 11.1339C112.751 11.1751 112.916 11.2988 113.122 11.505Z" fill="#020C40"/>
</svg>
