<svg width="136" height="18" viewBox="0 0 136 18" fill="none" xmlns="http://www.w3.org/2000/svg">
<path d="M0 0.510313C0 0.371138 0.0464479 0.231961 0.139341 0.139177C0.232234 0.0463933 0.371574 0 0.55736 0H13.3766C13.5159 0 13.6553 0.0463933 13.7482 0.139177C13.8411 0.231961 13.934 0.371138 13.934 0.510313V3.47939C13.934 3.61857 13.8875 3.75775 13.7946 3.89692C13.7017 4.0361 13.5624 4.08249 13.3766 4.08249H9.2893V17.1186C9.2893 17.2578 9.24285 17.3969 9.14996 17.4897C9.05707 17.5825 8.91773 17.6753 8.73195 17.6753H5.24846C5.10912 17.6753 4.96978 17.6289 4.87688 17.5361C4.73754 17.4433 4.6911 17.3042 4.6911 17.1186V4.08249H0.603806C0.464467 4.08249 0.325126 4.03609 0.185787 3.94331C0.0928937 3.85052 0.0464493 3.71135 0.0464493 3.47939V0.510313H0Z" fill="url(#paint0_linear_993_2393)"/>
<path d="M26.1029 15.8194C25.4062 16.4689 24.6166 16.9792 23.7341 17.3039C22.8516 17.6287 21.9227 17.8606 20.9473 17.8606C19.879 17.8606 18.8108 17.6751 17.8818 17.2575C16.9064 16.84 16.0704 16.3297 15.3273 15.5874C14.5841 14.8915 14.0268 14.0565 13.6087 13.1287C13.1907 12.1544 12.9585 11.1338 12.9585 10.0204C12.9585 9.32453 13.0514 8.62864 13.2372 7.97916C13.423 7.32967 13.6552 6.72657 13.9803 6.12348C14.3054 5.56678 14.677 5.01008 15.1415 4.54616C15.6059 4.08224 16.0704 3.66471 16.6278 3.29358C17.1851 2.96883 17.7889 2.69048 18.4392 2.50492C19.0894 2.31935 19.7861 2.22656 20.4828 2.22656C21.1331 2.22656 21.7833 2.31935 22.3871 2.50492C22.9909 2.69048 23.5947 2.92244 24.1521 3.24718C24.7095 3.57193 25.1739 3.94306 25.6384 4.40698C26.1029 4.8709 26.4744 5.33482 26.7996 5.84513C27.1247 6.35544 27.3569 6.95853 27.5427 7.51524C27.7285 8.11833 27.8214 8.72143 27.8214 9.37091C27.8214 9.78844 27.8214 10.1132 27.8214 10.3915C27.8214 10.6699 27.7285 10.8555 27.6356 10.9946C27.5427 11.1338 27.3569 11.273 27.0782 11.3194C26.7996 11.3658 26.428 11.4122 25.9635 11.4122H17.3709C17.4638 11.9225 17.6031 12.34 17.8354 12.6647C18.0676 12.9895 18.3463 13.2678 18.6714 13.4998C18.9965 13.6854 19.3217 13.8245 19.6932 13.9173C20.0648 14.0101 20.3899 14.0565 20.7151 14.0565C20.9937 14.0565 21.2724 14.0101 21.5975 13.9637C21.8762 13.9173 22.2014 13.8245 22.48 13.7318C22.7587 13.639 23.0374 13.4998 23.2696 13.407C23.5019 13.2678 23.6876 13.1287 23.827 12.9895C23.9663 12.8967 24.0592 12.8039 24.1521 12.7575C24.245 12.7111 24.3379 12.6647 24.4308 12.6647C24.5237 12.6647 24.6166 12.7111 24.7559 12.7575C24.8488 12.8503 24.9881 12.9431 25.1275 13.0823L26.3815 14.5204C26.4744 14.6132 26.5209 14.706 26.5673 14.7988C26.6138 14.8916 26.6138 14.9843 26.6138 15.0771C26.6138 15.2163 26.5673 15.3555 26.4744 15.4947C26.3351 15.6338 26.2422 15.7266 26.1029 15.8194ZM20.3899 5.89152C20.0648 5.89152 19.7861 5.93792 19.5075 6.07709C19.2288 6.21627 18.9501 6.35544 18.6714 6.5874C18.4392 6.77297 18.2069 7.00493 17.9747 7.28328C17.7889 7.56163 17.6031 7.79359 17.4638 8.07195H23.5947C23.409 7.7472 23.2696 7.46885 23.0374 7.23689C22.8516 6.95854 22.6194 6.72658 22.3871 6.54101C22.1549 6.35544 21.8298 6.16988 21.5511 6.07709C21.1795 5.98431 20.808 5.89152 20.3899 5.89152Z" fill="url(#paint1_linear_993_2393)"/>
<path d="M44.8674 16.7472C44.8674 16.8864 44.8209 17.0256 44.7745 17.1183C44.728 17.2575 44.6351 17.3503 44.5423 17.3967C44.4494 17.4895 44.3565 17.5359 44.2171 17.5823C44.0778 17.6287 43.9849 17.6287 43.892 17.6287H41.5232C41.3374 17.6287 41.1981 17.6287 41.1052 17.5823C41.0123 17.5359 40.9194 17.4895 40.873 17.3967C40.8265 17.3039 40.7336 17.2111 40.7336 17.1183C40.6872 17.0256 40.6407 16.8864 40.5943 16.7472L40.455 16.1905C40.2227 16.4225 39.9905 16.608 39.7118 16.84C39.4331 17.0256 39.1545 17.2111 38.8293 17.3967C38.5042 17.5823 38.1326 17.675 37.7611 17.7678C37.3895 17.8606 36.9715 17.907 36.5999 17.907C35.8567 17.907 35.2065 17.8142 34.5098 17.6287C33.8595 17.4431 33.2093 17.1647 32.6519 16.84C32.0946 16.5152 31.5372 16.0977 31.0728 15.6338C30.6083 15.1699 30.1903 14.6596 29.8651 14.0565C29.54 13.4998 29.2613 12.8503 29.0756 12.2008C28.8898 11.5513 28.7969 10.809 28.7969 10.1132C28.7969 8.99976 28.9827 7.97914 29.4007 7.0513C29.8187 6.12347 30.3761 5.28842 31.0728 4.59254C31.7695 3.89666 32.6055 3.33996 33.5344 2.92243C34.4633 2.5049 35.4852 2.31934 36.5534 2.31934C37.0644 2.31934 37.4824 2.36573 37.9468 2.50491C38.3649 2.59769 38.7829 2.78326 39.108 2.96883C39.4796 3.15439 39.7583 3.38635 40.0834 3.6647C40.3621 3.94306 40.6407 4.2214 40.8265 4.54615L41.1517 3.47913C41.2445 3.29356 41.291 3.108 41.3374 3.01521C41.3839 2.87604 41.4303 2.78326 41.5232 2.73687C41.5697 2.69048 41.6626 2.64408 41.7555 2.59769C41.8484 2.5513 41.9877 2.5513 42.127 2.5513H43.892C43.9849 2.5513 44.0778 2.5513 44.2171 2.59769C44.3565 2.64408 44.4494 2.69047 44.5423 2.78325C44.6351 2.87604 44.728 2.96882 44.7745 3.06161C44.8209 3.15439 44.8674 3.29357 44.8674 3.43274V16.7472ZM33.1164 10.0668C33.1164 10.5771 33.2093 11.0874 33.3486 11.5513C33.488 12.0152 33.7202 12.3864 34.0453 12.7575C34.324 13.0823 34.6956 13.3606 35.1136 13.5462C35.5316 13.7317 35.9961 13.8245 36.507 13.8245C37.0179 13.8245 37.5288 13.7317 37.9933 13.5462C38.4578 13.3606 38.8293 13.0823 39.2009 12.7575C39.526 12.4328 39.8047 12.0152 39.9905 11.5513C40.1763 11.0874 40.2692 10.6235 40.2692 10.0668C40.2692 9.55646 40.1763 9.09255 39.9905 8.62863C39.8047 8.16471 39.526 7.74718 39.2009 7.42244C38.8758 7.05131 38.4578 6.81934 37.9933 6.58739C37.5288 6.40182 37.0644 6.26264 36.507 6.26264C35.9961 6.26264 35.5316 6.35543 35.1136 6.58739C34.6956 6.77295 34.324 7.05131 34.0453 7.42244C33.7202 7.79358 33.488 8.16471 33.3486 8.62863C33.2093 9.09255 33.1164 9.60286 33.1164 10.0668Z" fill="url(#paint2_linear_993_2393)"/>
<path d="M47.7005 2.73688C47.7934 2.64409 47.9328 2.5977 48.0257 2.5513C48.1186 2.50491 48.2579 2.50492 48.3508 2.50492H50.1622C50.3016 2.50492 50.4409 2.55131 50.5338 2.5977C50.6267 2.64409 50.7196 2.73687 50.8125 2.78326C50.9054 2.87605 50.9518 2.96883 50.9983 3.06162C51.0447 3.1544 51.0912 3.29358 51.1376 3.38636L51.3698 4.45337C51.5092 4.22142 51.6485 3.94306 51.8807 3.7111C52.113 3.43275 52.3917 3.20079 52.7168 3.01522C53.0419 2.78326 53.4599 2.64409 53.9244 2.50492C54.3889 2.36574 54.9462 2.31934 55.5965 2.31934C56.1074 2.31934 56.5718 2.36574 56.9434 2.45852C57.3614 2.55131 57.733 2.69048 58.0581 2.87605C58.3833 3.06161 58.7084 3.29357 58.9871 3.57192C59.2657 3.85028 59.5444 4.17502 59.7766 4.54616C59.916 4.3142 60.1482 4.03585 60.4269 3.7575C60.7056 3.47915 61.0772 3.24718 61.4952 3.01522C61.9132 2.78326 62.3777 2.5977 62.8886 2.45852C63.3995 2.31935 63.9568 2.22656 64.5142 2.22656C65.3967 2.22656 66.1863 2.41213 66.883 2.73688C67.5797 3.06162 68.137 3.57193 68.555 4.17502C68.9731 4.77812 69.3446 5.47399 69.5769 6.26266C69.8091 7.05132 69.902 7.93276 69.902 8.81421V16.608C69.902 16.9328 69.8555 17.1184 69.7162 17.3039C69.5769 17.4895 69.3911 17.5359 69.1124 17.5359H66.3256C66.0005 17.5359 65.7683 17.4895 65.6289 17.3503C65.4896 17.2575 65.4431 17.0256 65.4431 16.7008V8.8606C65.4431 8.53586 65.3967 8.21112 65.3038 7.88637C65.2109 7.60802 65.0251 7.32967 64.8393 7.09771C64.6535 6.86575 64.4213 6.72657 64.1426 6.5874C63.8639 6.44822 63.5853 6.40183 63.2137 6.40183C62.935 6.40183 62.6099 6.44822 62.3777 6.5874C62.099 6.72657 61.8667 6.86575 61.681 7.09771C61.4952 7.32967 61.3094 7.56163 61.17 7.83998C61.0307 8.11834 60.9843 8.44307 60.9843 8.81421V16.608C60.9843 16.9328 60.9378 17.1184 60.7985 17.3039C60.6591 17.4431 60.4734 17.5359 60.1947 17.5359H59.9624H59.8695H57.4543C57.1292 17.5359 56.897 17.4895 56.7576 17.3503C56.6183 17.2575 56.5718 17.0256 56.5718 16.7008V8.8606C56.5718 8.53586 56.5254 8.21112 56.4325 7.88637C56.3396 7.56163 56.2003 7.32967 56.0145 7.09771C55.8287 6.86575 55.5965 6.72657 55.3178 6.5874C55.0391 6.44822 54.7604 6.40183 54.4353 6.40183C54.1566 6.40183 53.8779 6.44822 53.5993 6.5874C53.3206 6.68018 53.0884 6.86575 52.8561 7.09771C52.6239 7.32967 52.4381 7.56163 52.2988 7.83998C52.1594 8.11834 52.0665 8.44307 52.0201 8.81421V16.6544C52.0201 16.7936 51.9736 16.9328 51.9272 17.072C51.8807 17.2111 51.7878 17.3039 51.695 17.3967C51.6021 17.4431 51.5092 17.4895 51.4163 17.5359C51.3234 17.5823 51.2305 17.5823 51.0911 17.5823H48.3972C48.0721 17.5823 47.7934 17.4895 47.6541 17.3503C47.5148 17.1648 47.4219 16.9792 47.4219 16.7008V3.38636C47.4219 3.24718 47.4683 3.10801 47.5148 2.96884C47.5612 2.82966 47.6541 2.73687 47.7934 2.69048L47.7005 2.73688Z" fill="url(#paint3_linear_993_2393)"/>
<path d="M72.0384 2.73688C72.1313 2.64409 72.2706 2.5977 72.3635 2.5513C72.4564 2.50491 72.5958 2.50492 72.6886 2.50492H74.5001C74.6394 2.50492 74.7787 2.55131 74.8716 2.5977C74.9645 2.64409 75.0574 2.73687 75.1503 2.78326C75.2432 2.87605 75.2896 2.96883 75.3361 3.06162C75.3825 3.1544 75.429 3.29358 75.4754 3.38636L75.7077 4.45337C75.847 4.22142 75.9863 3.94306 76.2186 3.7111C76.4508 3.43275 76.7295 3.20079 77.0546 3.01522C77.3797 2.78326 77.7978 2.64409 78.2622 2.50492C78.7267 2.36574 79.284 2.31934 79.9343 2.31934C80.4452 2.31934 80.9097 2.36574 81.2813 2.45852C81.6993 2.55131 82.0708 2.69048 82.396 2.87605C82.7211 3.06161 83.0462 3.29357 83.3249 3.57192C83.6036 3.85028 83.8823 4.17502 84.1145 4.54616C84.2538 4.3142 84.4861 4.03585 84.7647 3.7575C85.0434 3.47915 85.415 3.24718 85.833 3.01522C86.251 2.78326 86.7155 2.5977 87.2264 2.45852C87.7373 2.31935 88.2947 2.22656 88.852 2.22656C89.7345 2.22656 90.5241 2.41213 91.2208 2.73688C91.9175 3.06162 92.4749 3.57193 92.8929 4.17502C93.3574 4.77812 93.6825 5.47399 93.9147 6.26266C94.1469 7.05132 94.2398 7.93276 94.2398 8.81421V16.608C94.2398 16.9328 94.1934 17.1184 94.0541 17.3039C93.9147 17.4431 93.7289 17.5359 93.4502 17.5359H90.7099C90.3848 17.5359 90.1525 17.4895 90.0132 17.3503C89.8739 17.2575 89.8274 17.0256 89.8274 16.7008V8.8606C89.8274 8.53586 89.781 8.21112 89.6881 7.88637C89.5952 7.60802 89.4094 7.32967 89.2236 7.09771C89.0378 6.86575 88.8056 6.72657 88.5269 6.5874C88.2482 6.44822 87.9695 6.40183 87.598 6.40183C87.3193 6.40183 86.9942 6.44822 86.7619 6.5874C86.4833 6.72657 86.251 6.86575 86.0652 7.09771C85.8795 7.32967 85.6937 7.56163 85.5543 7.83998C85.415 8.11834 85.3685 8.44307 85.3685 8.81421V16.608C85.3685 16.9328 85.3221 17.1184 85.1828 17.3039C85.0434 17.4431 84.8576 17.5359 84.5789 17.5359H84.3467H84.2538H81.8386C81.5135 17.5359 81.2812 17.4895 81.1419 17.3503C81.0026 17.2575 80.9561 17.0256 80.9561 16.7008V8.8606C80.9561 8.53586 80.9097 8.21112 80.8168 7.88637C80.7239 7.60802 80.5845 7.32967 80.3988 7.09771C80.213 6.86575 79.9807 6.72657 79.7021 6.5874C79.4234 6.44822 79.1447 6.40183 78.8196 6.40183C78.5409 6.40183 78.2622 6.44822 77.9835 6.5874C77.7049 6.68018 77.4726 6.86575 77.2404 7.09771C77.0082 7.32967 76.8224 7.56163 76.683 7.83998C76.5437 8.11834 76.4508 8.44307 76.4044 8.81421V16.6544C76.4044 16.7936 76.3579 16.9328 76.3115 17.072C76.265 17.2111 76.1721 17.3039 76.0792 17.3967C75.9863 17.4431 75.8934 17.4895 75.8006 17.5359C75.7077 17.5823 75.6148 17.5823 75.4754 17.5823H72.7815C72.4564 17.5823 72.1777 17.4895 72.0384 17.3503C71.899 17.1648 71.8062 16.9792 71.8062 16.7008V3.38636C71.8062 3.24718 71.8526 3.10801 71.8991 2.96884C71.9455 2.82966 72.0384 2.73687 72.1777 2.69048L72.0384 2.73688Z" fill="url(#paint4_linear_993_2393)"/>
<path d="M108.778 15.8194C108.081 16.4689 107.291 16.9792 106.409 17.3039C105.526 17.6287 104.597 17.8606 103.622 17.8606C102.554 17.8606 101.486 17.6751 100.557 17.2575C99.5813 16.84 98.7452 16.3297 98.0021 15.5874C97.2589 14.8915 96.7016 14.0565 96.2835 13.1287C95.8655 12.1544 95.6333 11.1338 95.6333 10.0204C95.6333 9.32453 95.7262 8.62864 95.912 7.97916C96.0978 7.32967 96.33 6.72657 96.6551 6.12348C96.9802 5.56678 97.3518 5.01008 97.8163 4.54616C98.2807 4.08224 98.7452 3.66471 99.3026 3.29358C99.8599 2.96883 100.464 2.69048 101.114 2.50492C101.764 2.31935 102.461 2.22656 103.158 2.22656C103.808 2.22656 104.458 2.31935 105.062 2.50492C105.666 2.69048 106.27 2.92244 106.827 3.24718C107.384 3.57193 107.849 3.94306 108.313 4.40698C108.778 4.8709 109.149 5.33482 109.474 5.84513C109.799 6.35544 110.032 6.95853 110.218 7.51524C110.403 8.11833 110.496 8.72143 110.496 9.37091C110.496 9.78844 110.496 10.1132 110.496 10.3915C110.496 10.6699 110.403 10.8555 110.31 10.9946C110.218 11.1338 110.032 11.273 109.753 11.3194C109.474 11.3658 109.103 11.4122 108.638 11.4122H100.046C100.139 11.9225 100.278 12.34 100.51 12.6647C100.742 12.9895 101.021 13.2678 101.346 13.4998C101.671 13.6854 101.996 13.8245 102.368 13.9173C102.74 14.0101 103.065 14.0565 103.39 14.0565C103.669 14.0565 103.947 14.0101 104.272 13.9637C104.551 13.9173 104.876 13.8245 105.155 13.7318C105.434 13.639 105.712 13.4998 105.944 13.407C106.177 13.2678 106.362 13.1287 106.502 12.9895C106.641 12.8967 106.734 12.8039 106.827 12.7575C106.92 12.7111 107.013 12.6647 107.106 12.6647C107.198 12.6647 107.291 12.7111 107.431 12.7575C107.524 12.8503 107.663 12.9431 107.802 13.0823L109.056 14.5204C109.149 14.6132 109.196 14.706 109.242 14.7988C109.289 14.8916 109.289 14.9843 109.289 15.0771C109.289 15.2163 109.242 15.3555 109.149 15.4947C109.01 15.6338 108.871 15.7266 108.778 15.8194ZM103.018 5.89152C102.693 5.89152 102.414 5.93792 102.136 6.07709C101.857 6.21627 101.578 6.35544 101.3 6.5874C101.068 6.77297 100.835 7.00493 100.603 7.28328C100.417 7.56163 100.232 7.79359 100.092 8.07195H106.177C105.991 7.7472 105.852 7.46885 105.619 7.23689C105.434 6.95854 105.201 6.72658 104.969 6.54101C104.737 6.35544 104.412 6.16988 104.133 6.07709C103.854 5.98431 103.483 5.89152 103.018 5.89152Z" fill="url(#paint5_linear_993_2393)"/>
<path d="M111.936 3.38635C111.936 3.24717 111.982 3.108 112.029 3.01521C112.075 2.92243 112.168 2.82965 112.261 2.73687C112.354 2.64408 112.447 2.59769 112.586 2.59769C112.679 2.5513 112.819 2.5513 112.911 2.5513H114.723C114.909 2.5513 115.094 2.59769 115.187 2.73687C115.327 2.87604 115.42 3.01522 115.512 3.20079C115.605 3.38635 115.652 3.57192 115.745 3.80387C115.791 4.03583 115.884 4.22141 115.977 4.45336C116.209 4.17501 116.441 3.94306 116.674 3.6647C116.906 3.43275 117.138 3.20079 117.417 2.96883C117.695 2.78326 117.974 2.59769 118.299 2.50491C118.624 2.36573 118.996 2.31934 119.414 2.31934C119.832 2.31934 120.204 2.36573 120.575 2.41212C120.9 2.45851 121.225 2.5513 121.55 2.69047C121.829 2.82965 122.154 2.96882 122.433 3.15439C122.712 3.33996 123.037 3.57192 123.408 3.80387C123.733 3.98944 123.919 4.2214 123.919 4.49975C123.919 4.68532 123.873 4.87089 123.733 5.10285L122.665 6.95852C122.433 7.28327 122.201 7.42244 121.876 7.42244C121.736 7.42244 121.55 7.37605 121.318 7.28326C120.993 6.95852 120.622 6.68017 120.296 6.541C119.925 6.40182 119.553 6.30904 119.089 6.30904C118.764 6.30904 118.485 6.35543 118.253 6.44822C118.021 6.541 117.788 6.68017 117.603 6.81935C117.417 6.95852 117.231 7.19049 117.045 7.37605C116.859 7.60801 116.72 7.83997 116.534 8.11832V16.7472C116.534 17.0719 116.441 17.2575 116.302 17.4431C116.163 17.6286 115.93 17.675 115.559 17.675H112.865C112.261 17.675 111.936 17.3503 111.936 16.7472V3.38635Z" fill="url(#paint6_linear_993_2393)"/>
<path d="M127.263 12.9436C127.496 13.1755 127.728 13.3611 127.96 13.5003C128.192 13.6394 128.471 13.7786 128.703 13.8714C128.935 13.9642 129.121 14.0106 129.307 14.057C129.493 14.1034 129.586 14.1034 129.679 14.1034C129.818 14.1034 130.004 14.1034 130.236 14.1034C130.468 14.1034 130.7 14.057 130.886 14.0106C131.118 13.9642 131.304 13.8714 131.443 13.7322C131.583 13.593 131.676 13.4075 131.676 13.1755C131.676 12.9436 131.629 12.758 131.536 12.6652C131.443 12.526 131.304 12.4332 131.165 12.3405C130.979 12.2477 130.793 12.1549 130.561 12.1085C130.329 12.0157 130.05 11.9693 129.725 11.8765C128.75 11.6446 128.006 11.3198 127.356 10.9487C126.752 10.5776 126.241 10.2064 125.87 9.74252C125.498 9.325 125.266 8.81469 125.127 8.30438C124.987 7.79407 124.895 7.28376 124.895 6.68066C124.895 6.03118 125.034 5.42808 125.266 4.87138C125.545 4.31468 125.916 3.85076 126.381 3.47962C126.845 3.10849 127.449 2.78375 128.099 2.59818C128.796 2.36622 129.539 2.27344 130.329 2.27344C130.84 2.27344 131.304 2.31982 131.722 2.41261C132.14 2.50539 132.558 2.64457 132.976 2.78374C133.394 2.96931 133.766 3.20127 134.137 3.47962C134.509 3.75797 134.881 4.08271 135.252 4.50024C135.391 4.63942 135.438 4.82498 135.438 4.96416C135.438 5.10334 135.345 5.24251 135.159 5.42808C134.834 5.66004 134.555 5.93839 134.277 6.17035C133.998 6.40231 133.719 6.68066 133.394 7.00541C133.301 7.09819 133.208 7.14458 133.116 7.14458C133.023 7.14458 132.93 7.14458 132.837 7.14458C132.744 7.09819 132.651 7.09819 132.605 7.00541C132.512 6.95901 132.465 6.86623 132.372 6.81983C132.094 6.49509 131.769 6.30953 131.397 6.21675C131.025 6.12396 130.7 6.07757 130.375 6.07757C130.004 6.07757 129.679 6.12396 129.446 6.26313C129.214 6.40231 129.121 6.58788 129.121 6.86623C129.121 7.0518 129.214 7.23736 129.353 7.33015C129.493 7.42293 129.679 7.51572 129.864 7.6085C130.05 7.70128 130.282 7.74767 130.515 7.79407C130.747 7.84046 130.933 7.88685 131.118 7.93324C131.815 8.1652 132.465 8.39716 133.069 8.67551C133.673 8.95386 134.184 9.27861 134.602 9.64974C135.02 10.0209 135.391 10.5312 135.624 11.0415C135.856 11.5982 135.995 12.2477 135.995 13.0363C135.995 13.825 135.856 14.5209 135.531 15.124C135.206 15.7271 134.788 16.2838 134.23 16.7013C133.673 17.1188 133.023 17.4436 132.28 17.6755C131.536 17.9075 130.7 18.0003 129.864 18.0003C129.353 18.0003 128.889 17.9539 128.378 17.8611C127.867 17.7683 127.356 17.6291 126.892 17.4436C126.427 17.258 125.963 16.9797 125.545 16.7013C125.127 16.3766 124.755 16.0054 124.384 15.5879C124.291 15.4951 124.244 15.3559 124.198 15.2168C124.151 15.0776 124.151 14.9848 124.151 14.8456C124.151 14.7065 124.198 14.6137 124.244 14.5209C124.291 14.4281 124.337 14.3353 124.43 14.2425L125.963 12.7116C126.149 12.5724 126.334 12.4796 126.474 12.526C126.845 12.5724 127.031 12.7116 127.263 12.9436Z" fill="url(#paint7_linear_993_2393)"/>
<defs>
<linearGradient id="paint0_linear_993_2393" x1="137.817" y1="14.8292" x2="-0.592957" y2="8.31906" gradientUnits="userSpaceOnUse">
<stop offset="0.00561801" stop-color="#3751FF"/>
<stop offset="0.9888" stop-color="#149CFF"/>
</linearGradient>
<linearGradient id="paint1_linear_993_2393" x1="137.782" y1="15.5706" x2="-0.627926" y2="9.06051" gradientUnits="userSpaceOnUse">
<stop offset="0.00561801" stop-color="#3751FF"/>
<stop offset="0.9888" stop-color="#149CFF"/>
</linearGradient>
<linearGradient id="paint2_linear_993_2393" x1="137.82" y1="14.766" x2="-0.590011" y2="8.25589" gradientUnits="userSpaceOnUse">
<stop offset="0.00561801" stop-color="#3751FF"/>
<stop offset="0.9888" stop-color="#149CFF"/>
</linearGradient>
<linearGradient id="paint3_linear_993_2393" x1="137.866" y1="13.7836" x2="-0.543866" y2="7.27348" gradientUnits="userSpaceOnUse">
<stop offset="0.00561801" stop-color="#3751FF"/>
<stop offset="0.9888" stop-color="#149CFF"/>
</linearGradient>
<linearGradient id="paint4_linear_993_2393" x1="137.92" y1="12.6432" x2="-0.490387" y2="6.13303" gradientUnits="userSpaceOnUse">
<stop offset="0.00561801" stop-color="#3751FF"/>
<stop offset="0.9888" stop-color="#149CFF"/>
</linearGradient>
<linearGradient id="paint5_linear_993_2393" x1="137.964" y1="11.7012" x2="-0.445997" y2="5.19104" gradientUnits="userSpaceOnUse">
<stop offset="0.00561801" stop-color="#3751FF"/>
<stop offset="0.9888" stop-color="#149CFF"/>
</linearGradient>
<linearGradient id="paint6_linear_993_2393" x1="137.998" y1="10.9817" x2="-0.412055" y2="4.47153" gradientUnits="userSpaceOnUse">
<stop offset="0.00561801" stop-color="#3751FF"/>
<stop offset="0.9888" stop-color="#149CFF"/>
</linearGradient>
<linearGradient id="paint7_linear_993_2393" x1="138.023" y1="10.4406" x2="-0.386842" y2="3.93047" gradientUnits="userSpaceOnUse">
<stop offset="0.00561801" stop-color="#3751FF"/>
<stop offset="0.9888" stop-color="#149CFF"/>
</linearGradient>
</defs>
</svg>
