<svg width="646" height="877" viewBox="0 0 646 877" fill="none" xmlns="http://www.w3.org/2000/svg">
<rect x="20" width="606" height="877" rx="28" fill="#FCF9F1"/>
<g filter="url(#filter0_d_2725_153)">
<rect width="542" height="575" rx="12" transform="matrix(-1 0 0 1 594 151)" fill="white"/>
</g>
<rect x="501.934" y="614.771" width="60" height="60" transform="rotate(8.78252 501.934 614.771)"/>
<circle cx="309" cy="684" r="5" fill="#88A4FC"/>
<rect x="123" y="199" width="41" height="41"/>
<path fill-rule="evenodd" clip-rule="evenodd" d="M96 643C96 668.957 122.415 690 155 690C187.585 690 214 668.957 214 643L96 643Z" fill="url(#paint0_linear_2725_153)"/>
<path fill-rule="evenodd" clip-rule="evenodd" d="M568 300C568 300 568 300 568 300C542.043 300 521 321.266 521 347.5C521 373.734 542.043 395 568 395C568 395 568 395 568 395V300Z" fill="url(#paint1_linear_2725_153)"/>
<rect x="264" y="257" width="118" height="118"/>
<circle cx="146" cy="304" r="4" fill="#A7ECF4"/>
<circle cx="435.5" cy="210.5" r="3.5" fill="#FFD15A"/>
<defs>
<filter id="filter0_d_2725_153" x="0" y="151" width="646" height="680" filterUnits="userSpaceOnUse" color-interpolation-filters="sRGB">
<feFlood flood-opacity="0" result="BackgroundImageFix"/>
<feColorMatrix in="SourceAlpha" type="matrix" values="0 0 0 0 0 0 0 0 0 0 0 0 0 0 0 0 0 0 127 0" result="hardAlpha"/>
<feOffset dy="53"/>
<feGaussianBlur stdDeviation="26"/>
<feColorMatrix type="matrix" values="0 0 0 0 0.766638 0 0 0 0 0.722993 0 0 0 0 0.635704 0 0 0 0.2 0"/>
<feBlend mode="normal" in2="BackgroundImageFix" result="effect1_dropShadow_2725_153"/>
<feBlend mode="normal" in="SourceGraphic" in2="effect1_dropShadow_2725_153" result="shape"/>
</filter>
<linearGradient id="paint0_linear_2725_153" x1="96" y1="706.269" x2="119.963" y2="615.672" gradientUnits="userSpaceOnUse">
<stop stop-color="#5AF5FF"/>
<stop offset="1" stop-color="#9BE7FF" stop-opacity="0.29"/>
</linearGradient>
<linearGradient id="paint1_linear_2725_153" x1="532.75" y1="335.625" x2="622.201" y2="338.586" gradientUnits="userSpaceOnUse">
<stop stop-color="#5A88FF"/>
<stop offset="1" stop-color="#9BA5FF" stop-opacity="0.29"/>
</linearGradient>
</defs>
</svg>
