<svg width="134" height="134" viewBox="0 0 134 134" fill="none" xmlns="http://www.w3.org/2000/svg">
<path d="M67 0L76.6426 6.11889L87.7041 3.27921L94.984 12.0784L106.382 12.7959L110.586 23.4139L121.204 27.6184L121.922 39.016L130.721 46.2959L127.881 57.3574L134 67L127.881 76.6426L130.721 87.7041L121.922 94.984L121.204 106.382L110.586 110.586L106.382 121.204L94.984 121.922L87.7041 130.721L76.6426 127.881L67 134L57.3574 127.881L46.2959 130.721L39.016 121.922L27.6184 121.204L23.4139 110.586L12.7959 106.382L12.0784 94.984L3.27921 87.7041L6.11889 76.6426L0 67L6.11889 57.3574L3.27921 46.2959L12.0784 39.016L12.7959 27.6184L23.4139 23.4139L27.6184 12.7959L39.016 12.0784L46.2959 3.27921L57.3574 6.11889L67 0Z" fill="url(#paint0_linear_868_395)"/>
<defs>
<linearGradient id="paint0_linear_868_395" x1="22" y1="28.5" x2="141" y2="134" gradientUnits="userSpaceOnUse">
<stop stop-color="#FFD05A"/>
<stop offset="1" stop-color="#FFE39B" stop-opacity="0.29"/>
</linearGradient>
</defs>
</svg>
