<svg width="16" height="16" viewBox="0 0 16 16" fill="none" xmlns="http://www.w3.org/2000/svg">
<path d="M9.33333 12.6667H12.6667V3.33333H3.33333V12.6667H8V9.33333H6.66667V8H8V6.89733C8 6.006 8.09333 5.68267 8.26667 5.35667C8.43741 5.03412 8.70131 4.77046 9.024 4.6C9.27867 4.46333 9.59533 4.38133 10.1487 4.346C10.368 4.332 10.652 4.34933 11.0007 4.39933V5.666H10.6667C10.0553 5.666 9.80267 5.69467 9.652 5.77533C9.5621 5.82157 9.4889 5.89476 9.44267 5.98467C9.36267 6.13533 9.33333 6.28467 9.33333 6.89667V8H11L10.6667 9.33333H9.33333V12.6667ZM2.66667 2H13.3333C13.5101 2 13.6797 2.07024 13.8047 2.19526C13.9298 2.32029 14 2.48986 14 2.66667V13.3333C14 13.5101 13.9298 13.6797 13.8047 13.8047C13.6797 13.9298 13.5101 14 13.3333 14H2.66667C2.48986 14 2.32029 13.9298 2.19526 13.8047C2.07024 13.6797 2 13.5101 2 13.3333V2.66667C2 2.48986 2.07024 2.32029 2.19526 2.19526C2.32029 2.07024 2.48986 2 2.66667 2Z" fill="#8186A0"/>
</svg>
