<svg width="12" height="12" viewBox="0 0 12 12" fill="none" xmlns="http://www.w3.org/2000/svg">
<path d="M4.594 12.0023C3.55572 12.0023 2.57838 11.5969 1.84244 10.8633C0.776036 9.79688 0.405724 8.21953 0.956505 6.68438C0.972911 6.6375 0.991661 6.59297 1.01275 6.54609C1.75104 4.98281 3.25338 4.11797 4.86588 4.22812C4.97369 4.23516 5.06275 4.33125 5.06275 4.43906V6.47344C5.06275 6.73359 4.84947 6.94219 4.59166 6.94219C3.94244 6.94219 3.4151 7.46484 3.4151 8.10703C3.4151 8.74922 3.94244 9.27188 4.59166 9.27188C4.71822 9.27188 4.84244 9.25078 4.96197 9.21328C5.44244 9.05625 5.76588 8.61328 5.76822 8.11172V0.46875C5.76822 0.208594 5.97916 0 6.24166 0H8.01588C8.27604 0 8.48463 0.208594 8.48463 0.46875C8.48697 1.74375 9.52525 2.77969 10.8026 2.77969C11.0628 2.77969 11.2737 2.98828 11.2737 3.24844V5.03203C11.2737 5.29219 11.0628 5.50078 10.8026 5.50078C10.1229 5.50078 9.46197 5.36719 8.83854 5.10469C8.719 5.05312 8.59947 4.99922 8.48463 4.93828V8.12344C8.47994 9.15938 8.07447 10.1297 7.34557 10.8609C6.7526 11.4539 6.0026 11.8336 5.1776 11.9578C4.98541 11.9859 4.78854 12.0023 4.594 12.0023ZM4.12525 5.19375C3.47838 5.29688 2.88307 5.61328 2.42604 6.10547C1.9315 6.63984 1.65025 7.34297 1.64088 8.07187C1.6315 8.87578 1.93854 9.63047 2.50572 10.1977C3.06354 10.7555 3.80416 11.0625 4.594 11.0625C4.744 11.0625 4.89166 11.0508 5.03932 11.0297C5.66275 10.9359 6.23229 10.6477 6.68229 10.1977C7.23775 9.64453 7.54479 8.90625 7.54713 8.12109V4.0875C7.54713 3.86719 7.69947 3.67266 7.92916 3.62813C8.06275 3.60234 8.20104 3.6375 8.30885 3.72188C8.58307 3.93281 8.88541 4.10859 9.2065 4.24219C9.56979 4.39453 9.94713 4.49531 10.3362 4.5375V3.68203C8.91588 3.47578 7.78854 2.35313 7.58229 0.935156H6.70338V8.11172C6.70104 9.01875 6.11979 9.81797 5.25963 10.1016C5.04635 10.1719 4.82135 10.2094 4.59635 10.2094C3.43385 10.2094 2.48932 9.26719 2.48932 8.10703C2.48932 7.10859 3.1901 6.26953 4.1276 6.05625V5.19375H4.12525Z" fill="#020C40"/>
</svg>
