<svg width="16" height="14" viewBox="0 0 16 14" fill="none" xmlns="http://www.w3.org/2000/svg">
<path d="M15.3332 0.999868C14.6948 1.45019 13.9879 1.79461 13.2398 2.01987C12.8383 1.55821 12.3047 1.231 11.7112 1.08249C11.1177 0.933975 10.4928 0.971332 9.92122 1.1895C9.34961 1.40768 8.8588 1.79614 8.51516 2.30235C8.17152 2.80856 7.99164 3.40809 7.99984 4.01987V4.68653C6.82826 4.71691 5.66735 4.45708 4.62051 3.93017C3.57367 3.40325 2.67338 2.62562 1.99984 1.66653C1.99984 1.66653 -0.666829 7.66653 5.33317 10.3332C3.96019 11.2652 2.32461 11.7325 0.666504 11.6665C6.6665 14.9999 13.9998 11.6665 13.9998 3.99987C13.9992 3.81417 13.9814 3.62893 13.9465 3.44653C14.6269 2.77553 15.1071 1.92834 15.3332 0.999868V0.999868Z" stroke="#020C40" stroke-width="1.5" stroke-linecap="round" stroke-linejoin="round"/>
</svg>
