<svg width="16" height="16" viewBox="0 0 16 16" fill="none" xmlns="http://www.w3.org/2000/svg">
<path d="M2.16148 3.77089C2.16833 3.74442 2.17519 3.71842 2.18206 3.69292C2.80853 4.38354 3.55853 4.95515 4.3962 5.37678C5.5167 5.94076 6.75928 6.21888 8.01329 6.18637C8.28429 6.17934 8.50032 5.95763 8.50032 5.68653V5.01987H8.50037L8.50028 5.01317C8.49345 4.50381 8.64322 4.00464 8.92933 3.58317C9.21544 3.16171 9.62409 2.83828 10.1 2.65663C10.5759 2.47499 11.0961 2.44388 11.5903 2.56753C12.0845 2.69118 12.5288 2.96361 12.863 3.34799C12.9921 3.49638 13.1962 3.55534 13.3845 3.49863C13.7094 3.40081 14.0269 3.28196 14.3353 3.14304C14.1319 3.48791 13.8837 3.80668 13.5959 4.09053C13.4771 4.20772 13.4245 4.37648 13.4559 4.54041C13.4849 4.69213 13.4998 4.84622 13.5003 5.00069C13.5001 8.65862 11.7602 11.2333 9.34873 12.5168C7.41307 13.5471 5.01222 13.7625 2.66616 12.9978C3.71486 12.7785 4.71733 12.3559 5.61447 11.7469C5.76469 11.6449 5.84782 11.4696 5.83168 11.2887C5.81553 11.1079 5.70263 10.95 5.53673 10.8763C4.11668 10.2452 3.23922 9.43161 2.70398 8.58651C2.16674 7.73822 1.95513 6.82758 1.91648 5.97716C1.87772 5.12456 2.01354 4.34292 2.16148 3.77089Z" stroke="#8186A0" stroke-linecap="round" stroke-linejoin="round"/>
</svg>
